<?xml version="1.0" encoding="iso-8859-1"?>
<!-- Uploaded to: SVG Repo, www.svgrepo.com, Generator: SVG Repo Mixer Tools -->
<svg fill="#000000" height="800px" width="800px" version="1.1" id="Layer_1" xmlns="http://www.w3.org/2000/svg" xmlns:xlink="http://www.w3.org/1999/xlink" 
	 viewBox="0 0 512 512" xml:space="preserve">
<g>
	<g>
		<path d="M213.244,51.307c-3.676,0-7.317,0.336-10.893,1.003c-3.091-13.173-10.079-25.17-20.2-34.459
			C169.609,6.34,153.32,0,136.284,0c-17.035,0-33.325,6.34-45.867,17.849c-10.121,9.289-17.109,21.287-20.2,34.459
			C66.64,51.643,63,51.307,59.324,51.307C26.612,51.307,0,77.919,0,110.63s26.612,59.324,59.324,59.324h25.653
			c4.427,0,8.017-3.589,8.017-8.017s-3.589-8.017-8.017-8.017H59.324c-23.871,0-43.29-19.42-43.29-43.29s19.42-43.29,43.29-43.29
			c5.024,0,9.953,0.857,14.653,2.547c2.333,0.838,4.925,0.55,7.019-0.781c2.093-1.333,3.45-3.559,3.677-6.031
			c2.458-26.819,24.646-47.042,51.61-47.042s49.152,20.224,51.61,47.042c0.227,2.471,1.584,4.698,3.677,6.031
			c2.094,1.333,4.686,1.622,7.019,0.781c4.7-1.69,9.63-2.547,14.653-2.547c23.871,0,43.29,19.42,43.29,43.29
			s-19.42,43.29-43.29,43.29h-94.063c-4.427,0-8.017,3.589-8.017,8.017s3.589,8.017,8.017,8.017h94.063
			c32.711,0,59.324-26.612,59.324-59.324S245.956,51.307,213.244,51.307z"/>
	</g>
</g>
<g>
	<g>
		<path d="M452.676,393.353c-3.675,0-7.317,0.336-10.892,1.003c-3.092-13.173-10.079-25.17-20.2-34.459
			c-12.543-11.511-28.832-17.85-45.868-17.85s-33.325,6.34-45.867,17.849c-10.122,9.289-17.109,21.287-20.2,34.459
			c-3.577-0.667-7.217-1.003-10.892-1.003c-32.711,0-59.324,26.612-59.324,59.324c0,32.711,26.612,59.324,59.324,59.324h94.063
			c4.428,0,8.017-3.589,8.017-8.017c0-4.427-3.588-8.017-8.017-8.017h-94.063c-23.871,0-43.29-19.42-43.29-43.29
			c0-23.87,19.42-43.29,43.29-43.29c5.023,0,9.954,0.857,14.653,2.547c2.333,0.839,4.924,0.55,7.019-0.781
			c2.092-1.333,3.45-3.559,3.676-6.031c2.458-26.819,24.647-47.042,51.61-47.042c26.964,0,49.152,20.223,51.61,47.042
			c0.227,2.471,1.584,4.698,3.676,6.031c2.094,1.334,4.686,1.62,7.019,0.781c4.7-1.691,9.631-2.547,14.653-2.547
			c23.871,0,43.29,19.42,43.29,43.29c0,23.871-19.419,43.291-43.289,43.291h-25.653c-4.428,0-8.017,3.589-8.017,8.017
			c0,4.427,3.588,8.017,8.017,8.017h25.653C485.388,512,512,485.388,512,452.676C512,419.965,485.388,393.353,452.676,393.353z"/>
	</g>
</g>
<g>
	<g>
		<path d="M221.795,222.33c-37.426,0-67.875,30.449-67.875,67.875c0,37.426,30.448,67.875,67.875,67.875
			s67.875-30.448,67.875-67.875C289.67,252.778,259.222,222.33,221.795,222.33z M221.795,342.046
			c-28.585,0-51.841-23.256-51.841-51.841c0-28.585,23.256-51.841,51.841-51.841s51.841,23.256,51.841,51.841
			S250.381,342.046,221.795,342.046z"/>
	</g>
</g>
<g>
	<g>
		<path d="M221.795,179.574c-4.427,0-8.017,3.589-8.017,8.017v17.102c0,4.427,3.589,8.017,8.017,8.017s8.017-3.589,8.017-8.017
			v-17.102C229.812,183.163,226.223,179.574,221.795,179.574z"/>
	</g>
</g>
<g>
	<g>
		<path d="M166.999,224.071l-12.093-12.093c-3.131-3.131-8.207-3.131-11.337,0c-3.131,3.131-3.131,8.207,0,11.337l12.094,12.093
			c1.565,1.565,3.616,2.348,5.668,2.348C168.34,237.756,171.938,229.009,166.999,224.071z"/>
	</g>
</g>
<g>
	<g>
		<path d="M136.284,282.188h-17.102c-4.427,0-8.017,3.589-8.017,8.017s3.589,8.017,8.017,8.017h17.102
			c4.427,0,8.017-3.589,8.017-8.017S140.711,282.188,136.284,282.188z"/>
	</g>
</g>
<g>
	<g>
		<path d="M166.997,345.001c-3.13-3.131-8.206-3.131-11.337,0l-12.093,12.093c-2.919,2.918-3.113,7.74-0.427,10.877
			c2.998,3.501,8.502,3.721,11.763,0.46l12.093-12.093C170.128,353.207,170.128,348.131,166.997,345.001z"/>
	</g>
</g>
<g>
	<g>
		<path d="M221.795,367.699c-4.427,0-8.017,3.589-8.017,8.017v17.102c0,4.427,3.589,8.017,8.017,8.017s8.017-3.589,8.017-8.017
			v-17.102C229.812,371.289,226.223,367.699,221.795,367.699z"/>
	</g>
</g>
<g>
	<g>
		<path d="M300.022,357.095l-12.092-12.093c-3.131-3.131-8.207-3.132-11.337,0c-3.132,3.131-3.132,8.206-0.001,11.337l12.092,12.093
			c3.261,3.261,8.765,3.041,11.763-0.46C303.135,364.835,302.942,360.014,300.022,357.095z"/>
	</g>
</g>
<g>
	<g>
		<path d="M324.409,282.188h-17.102c-4.428,0-8.017,3.589-8.017,8.017s3.588,8.017,8.017,8.017h17.102
			c4.428,0,8.017-3.589,8.017-8.017S328.838,282.188,324.409,282.188z"/>
	</g>
</g>
<g>
	<g>
		<path d="M300.021,211.978c-3.13-3.132-8.206-3.131-11.337,0l-12.092,12.094c-4.938,4.937-1.343,13.685,5.668,13.685
			c2.051,0,4.104-0.782,5.669-2.348l12.092-12.093C303.153,220.184,303.153,215.107,300.021,211.978z"/>
	</g>
</g>
<g>
	<g>
		<path d="M110.63,393.353c-0.18,0-0.359,0.001-0.539,0.004c0.002-0.18,0.004-0.358,0.004-0.539c0-18.566-15.104-33.67-33.67-33.67
			s-33.67,15.105-33.67,33.67c0,0.18,0.001,0.359,0.004,0.539c-0.18-0.003-0.359-0.004-0.539-0.004
			c-18.566,0-33.67,15.105-33.67,33.67c0,18.566,15.105,33.67,33.67,33.67h68.409c18.566,0,33.67-15.105,33.67-33.67
			C144.301,408.457,129.196,393.353,110.63,393.353z M110.63,444.66H42.221c-9.725,0-17.637-7.912-17.637-17.637
			c0-9.725,7.912-17.637,17.637-17.637c2.659,0,5.213,0.576,7.59,1.712c3.034,1.451,6.749,0.812,9.125-1.564
			s3.015-6.092,1.565-9.125c-1.136-2.379-1.712-4.933-1.712-7.591c0-9.725,7.912-17.637,17.637-17.637s17.637,7.912,17.637,17.637
			c0,2.659-0.576,5.213-1.712,7.59c-1.451,3.034-0.812,6.749,1.564,9.126c2.376,2.376,6.093,3.013,9.126,1.565
			c2.377-1.136,4.931-1.712,7.59-1.712c9.725,0,17.637,7.912,17.637,17.637S120.355,444.66,110.63,444.66z"/>
	</g>
</g>
<g>
	<g>
		<path d="M427.023,128.267c-0.18,0-0.359,0.001-0.539,0.004c0.003-0.18,0.004-0.358,0.004-0.539c0-18.566-15.105-33.67-33.67-33.67
			c-18.566,0-33.67,15.105-33.67,33.67c0,0.18,0.001,0.359,0.004,0.539c-0.18-0.002-0.359-0.004-0.539-0.004
			c-18.566,0-33.67,15.105-33.67,33.67s15.105,33.67,33.67,33.67h68.409c18.566,0,33.67-15.105,33.67-33.67
			S445.589,128.267,427.023,128.267z M427.023,179.574h-68.409c-9.725,0-17.637-7.912-17.637-17.637s7.912-17.637,17.637-17.637
			c2.659,0,5.213,0.576,7.59,1.712c3.065,1.465,6.722,0.839,9.126-1.564c2.403-2.403,3.029-6.06,1.564-9.126
			c-1.136-2.377-1.712-4.93-1.712-7.59c0-9.725,7.912-17.637,17.637-17.637s17.637,7.912,17.637,17.637
			c0,2.659-0.576,5.213-1.712,7.59c-1.465,3.066-0.839,6.723,1.564,9.126c2.404,2.404,6.062,3.029,9.126,1.564
			c2.377-1.136,4.93-1.712,7.59-1.712c9.725,0,17.637,7.912,17.637,17.637S436.748,179.574,427.023,179.574z"/>
	</g>
</g>
</svg>